<?xml version="1.0" encoding="UTF-8"?>
<svg width="16px" height="20px" viewBox="0 0 16 20" version="1.1" xmlns="http://www.w3.org/2000/svg" xmlns:xlink="http://www.w3.org/1999/xlink">
    <title>图标/20*20/向右</title>
    <g id="页面-1" stroke="none" stroke-width="1" fill="none" fill-rule="evenodd">
        <g id="首页" transform="translate(-649, -1716)" fill="#1154D8">
            <g id="编组-11" transform="translate(240, 1380)">
                <g id="编组-4" transform="translate(100, 110)">
                    <g id="编组-8" transform="translate(200, 219)">
                        <g id="图标/20*20/向右" transform="translate(113.8718, 10.9741)">
                            <g id="编组" transform="translate(3.6222, 6.0259) scale(-1, 1) translate(-3.6222, -6.0259)translate(0, 0)">
                                <path d="M0.207158896,2.76846341 L7.03730426,2.76846341 C7.5088274,2.76846341 7.89107243,3.15070844 7.89107243,3.62223158 C7.89107243,4.09375472 7.5088274,4.47599975 7.03730426,4.47599975 L0.207158896,4.47599975 C-0.264364245,4.47599975 -0.646609275,4.09375472 -0.646609275,3.62223158 C-0.646609275,3.15070844 -0.264364245,2.76846341 0.207158896,2.76846341 Z" id="矩形" transform="translate(3.6222, 3.6222) rotate(-45) translate(-3.6222, -3.6222)"></path>
                                <path d="M0.207158896,7.57576006 L7.03730426,7.57576006 C7.5088274,7.57576006 7.89107243,7.95800509 7.89107243,8.42952823 C7.89107243,8.90105137 7.5088274,9.2832964 7.03730426,9.2832964 L0.207158896,9.2832964 C-0.264364245,9.2832964 -0.646609275,8.90105137 -0.646609275,8.42952823 C-0.646609275,7.95800509 -0.264364245,7.57576006 0.207158896,7.57576006 Z" id="矩形" transform="translate(3.6222, 8.4295) rotate(-315) translate(-3.6222, -8.4295)"></path>
                            </g>
                        </g>
                    </g>
                </g>
            </g>
        </g>
    </g>
</svg>